ISO-10303-21;
HEADER;
FILE_DESCRIPTION(('Open CASCADE Model'),'2;1');
FILE_NAME('Open CASCADE Shape Model','2026-09-29T03:19:55',('Author'),(
    'Open CASCADE'),'Open CASCADE STEP processor 7.9','Open CASCADE 7.9'
  ,'Unknown');
FILE_SCHEMA(('AUTOMOTIVE_DESIGN { 1 0 10303 214 1 1 1 1 }'));
ENDSEC;
DATA;
#1 = APPLICATION_PROTOCOL_DEFINITION('international standard',
  'automotive_design',2000,#2);
#2 = APPLICATION_CONTEXT(
  'core data for automotive mechanical design processes');
#3 = SHAPE_DEFINITION_REPRESENTATION(#4,#10);
#4 = PRODUCT_DEFINITION_SHAPE('','',#5);
#5 = PRODUCT_DEFINITION('design','',#6,#9);
#6 = PRODUCT_DEFINITION_FORMATION('','',#7);
#7 = PRODUCT('Open CASCADE STEP translator 7.9 8',
  'Open CASCADE STEP translator 7.9 8','',(#8));
#8 = PRODUCT_CONTEXT('',#2,'mechanical');
#9 = PRODUCT_DEFINITION_CONTEXT('part definition',#2,'design');
#10 = ADVANCED_BREP_SHAPE_REPRESENTATION('',(#11,#15),#757);
#11 = AXIS2_PLACEMENT_3D('',#12,#13,#14);
#12 = CARTESIAN_POINT('',(0.,0.,0.));
#13 = DIRECTION('',(0.,0.,1.));
#14 = DIRECTION('',(1.,0.,-0.));
#15 = MANIFOLD_SOLID_BREP('',#16);
#16 = CLOSED_SHELL('',(#17,#147,#378,#427,#553,#580,#607,#634,#641,#645,
    #700,#753));
#17 = ADVANCED_FACE('',(#18),#33,.F.);
#18 = FACE_BOUND('',#19,.F.);
#19 = EDGE_LOOP('',(#20,#65,#93,#121));
#20 = ORIENTED_EDGE('',*,*,#21,.F.);
#21 = EDGE_CURVE('',#22,#24,#26,.T.);
#22 = VERTEX_POINT('',#23);
#23 = CARTESIAN_POINT('',(-4.55,7.505553499465,0.));
#24 = VERTEX_POINT('',#25);
#25 = CARTESIAN_POINT('',(-4.55,3.752776749732,6.5));
#26 = SURFACE_CURVE('',#27,(#32,#44),.PCURVE_S1.);
#27 = HYPERBOLA('',#28,4.0625,6.5);
#28 = AXIS2_PLACEMENT_3D('',#29,#30,#31);
#29 = CARTESIAN_POINT('',(-9.240970937166,5.629165124599,3.25));
#30 = DIRECTION('',(0.,-0.866025403784,-0.5));
#31 = DIRECTION('',(1.,0.,0.));
#32 = PCURVE('',#33,#38);
#33 = PLANE('',#34);
#34 = AXIS2_PLACEMENT_3D('',#35,#36,#37);
#35 = CARTESIAN_POINT('',(-5.3,7.505553499465,0.));
#36 = DIRECTION('',(0.,-0.866025403784,-0.5));
#37 = DIRECTION('',(0.,-0.5,0.866025403784));
#38 = DEFINITIONAL_REPRESENTATION('',(#39),#43);
#39 = ( BOUNDED_CURVE() B_SPLINE_CURVE(2,(#40,#41,#42),.UNSPECIFIED.,.F.
,.F.) B_SPLINE_CURVE_WITH_KNOTS((3,3),(-0.549306144334,0.549306144334),
.PIECEWISE_BEZIER_KNOTS.) CURVE() GEOMETRIC_REPRESENTATION_ITEM() 
RATIONAL_B_SPLINE_CURVE((1.,1.154700538379,1.)) REPRESENTATION_ITEM('') 
  );
#40 = CARTESIAN_POINT('',(8.881784197001E-16,-0.75));
#41 = CARTESIAN_POINT('',(3.752776749733,0.422742734291));
#42 = CARTESIAN_POINT('',(7.505553499465,-0.75));
#43 = ( GEOMETRIC_REPRESENTATION_CONTEXT(2) 
PARAMETRIC_REPRESENTATION_CONTEXT() REPRESENTATION_CONTEXT('2D SPACE',''
  ) );
#44 = PCURVE('',#45,#50);
#45 = CONICAL_SURFACE('',#46,7.505553499465,1.012197011451);
#46 = AXIS2_PLACEMENT_3D('',#47,#48,#49);
#47 = CARTESIAN_POINT('',(-4.55,0.,0.));
#48 = DIRECTION('',(1.,0.,0.));
#49 = DIRECTION('',(-0.,1.,0.));
#50 = DEFINITIONAL_REPRESENTATION('',(#51),#64);
#51 = B_SPLINE_CURVE_WITH_KNOTS('',6,(#52,#53,#54,#55,#56,#57,#58,#59,
    #60,#61,#62,#63),.UNSPECIFIED.,.F.,.F.,(7,5,7),(-0.549306144334,
    1.110223024625E-16,0.549306144334),.UNSPECIFIED.);
#52 = CARTESIAN_POINT('',(1.183361653159E-16,2.494883201405E-16));
#53 = CARTESIAN_POINT('',(7.92855125747E-02,-0.214731596556));
#54 = CARTESIAN_POINT('',(0.162925989184,-0.382281860471));
#55 = CARTESIAN_POINT('',(0.2503248097,-0.505890254937));
#56 = CARTESIAN_POINT('',(0.340497154616,-0.587610668046));
#57 = CARTESIAN_POINT('',(0.432047751543,-0.628470937166));
#58 = CARTESIAN_POINT('',(0.615149799654,-0.628470937166));
#59 = CARTESIAN_POINT('',(0.706700396581,-0.587610668046));
#60 = CARTESIAN_POINT('',(0.796872741496,-0.505890254937));
#61 = CARTESIAN_POINT('',(0.884271562013,-0.382281860471));
#62 = CARTESIAN_POINT('',(0.967912038622,-0.214731596556));
#63 = CARTESIAN_POINT('',(1.047197551197,6.486696323653E-16));
#64 = ( GEOMETRIC_REPRESENTATION_CONTEXT(2) 
PARAMETRIC_REPRESENTATION_CONTEXT() REPRESENTATION_CONTEXT('2D SPACE',''
  ) );
#65 = ORIENTED_EDGE('',*,*,#66,.T.);
#66 = EDGE_CURVE('',#22,#67,#69,.T.);
#67 = VERTEX_POINT('',#68);
#68 = CARTESIAN_POINT('',(0.,7.505553499465,0.));
#69 = SURFACE_CURVE('',#70,(#74,#81),.PCURVE_S1.);
#70 = LINE('',#71,#72);
#71 = CARTESIAN_POINT('',(-5.3,7.505553499465,0.));
#72 = VECTOR('',#73,1.);
#73 = DIRECTION('',(1.,0.,0.));
#74 = PCURVE('',#33,#75);
#75 = DEFINITIONAL_REPRESENTATION('',(#76),#80);
#76 = LINE('',#77,#78);
#77 = CARTESIAN_POINT('',(0.,0.));
#78 = VECTOR('',#79,1.);
#79 = DIRECTION('',(0.,-1.));
#80 = ( GEOMETRIC_REPRESENTATION_CONTEXT(2) 
PARAMETRIC_REPRESENTATION_CONTEXT() REPRESENTATION_CONTEXT('2D SPACE',''
  ) );
#81 = PCURVE('',#82,#87);
#82 = PLANE('',#83);
#83 = AXIS2_PLACEMENT_3D('',#84,#85,#86);
#84 = CARTESIAN_POINT('',(-5.3,3.752776749733,-6.5));
#85 = DIRECTION('',(0.,-0.866025403784,0.5));
#86 = DIRECTION('',(0.,0.5,0.866025403784));
#87 = DEFINITIONAL_REPRESENTATION('',(#88),#92);
#88 = LINE('',#89,#90);
#89 = CARTESIAN_POINT('',(7.505553499465,0.));
#90 = VECTOR('',#91,1.);
#91 = DIRECTION('',(0.,-1.));
#92 = ( GEOMETRIC_REPRESENTATION_CONTEXT(2) 
PARAMETRIC_REPRESENTATION_CONTEXT() REPRESENTATION_CONTEXT('2D SPACE',''
  ) );
#93 = ORIENTED_EDGE('',*,*,#94,.T.);
#94 = EDGE_CURVE('',#67,#95,#97,.T.);
#95 = VERTEX_POINT('',#96);
#96 = CARTESIAN_POINT('',(0.,3.752776749733,6.5));
#97 = SURFACE_CURVE('',#98,(#102,#109),.PCURVE_S1.);
#98 = LINE('',#99,#100);
#99 = CARTESIAN_POINT('',(0.,7.505553499465,0.));
#100 = VECTOR('',#101,1.);
#101 = DIRECTION('',(0.,-0.5,0.866025403784));
#102 = PCURVE('',#33,#103);
#103 = DEFINITIONAL_REPRESENTATION('',(#104),#108);
#104 = LINE('',#105,#106);
#105 = CARTESIAN_POINT('',(0.,-5.3));
#106 = VECTOR('',#107,1.);
#107 = DIRECTION('',(1.,0.));
#108 = ( GEOMETRIC_REPRESENTATION_CONTEXT(2) 
PARAMETRIC_REPRESENTATION_CONTEXT() REPRESENTATION_CONTEXT('2D SPACE',''
  ) );
#109 = PCURVE('',#110,#115);
#110 = PLANE('',#111);
#111 = AXIS2_PLACEMENT_3D('',#112,#113,#114);
#112 = CARTESIAN_POINT('',(8.881784197001E-16,-3.155631075091E-16,
    -3.944538843864E-16));
#113 = DIRECTION('',(1.,0.,0.));
#114 = DIRECTION('',(-0.,0.,1.));
#115 = DEFINITIONAL_REPRESENTATION('',(#116),#120);
#116 = LINE('',#117,#118);
#117 = CARTESIAN_POINT('',(3.944538843864E-16,-7.505553499465));
#118 = VECTOR('',#119,1.);
#119 = DIRECTION('',(0.866025403784,0.5));
#120 = ( GEOMETRIC_REPRESENTATION_CONTEXT(2) 
PARAMETRIC_REPRESENTATION_CONTEXT() REPRESENTATION_CONTEXT('2D SPACE',''
  ) );
#121 = ORIENTED_EDGE('',*,*,#122,.F.);
#122 = EDGE_CURVE('',#24,#95,#123,.T.);
#123 = SURFACE_CURVE('',#124,(#128,#135),.PCURVE_S1.);
#124 = LINE('',#125,#126);
#125 = CARTESIAN_POINT('',(-5.3,3.752776749733,6.5));
#126 = VECTOR('',#127,1.);
#127 = DIRECTION('',(1.,0.,0.));
#128 = PCURVE('',#33,#129);
#129 = DEFINITIONAL_REPRESENTATION('',(#130),#134);
#130 = LINE('',#131,#132);
#131 = CARTESIAN_POINT('',(7.505553499465,0.));
#132 = VECTOR('',#133,1.);
#133 = DIRECTION('',(0.,-1.));
#134 = ( GEOMETRIC_REPRESENTATION_CONTEXT(2) 
PARAMETRIC_REPRESENTATION_CONTEXT() REPRESENTATION_CONTEXT('2D SPACE',''
  ) );
#135 = PCURVE('',#136,#141);
#136 = PLANE('',#137);
#137 = AXIS2_PLACEMENT_3D('',#138,#139,#140);
#138 = CARTESIAN_POINT('',(-5.3,3.752776749733,6.5));
#139 = DIRECTION('',(0.,-1.183361653159E-16,-1.));
#140 = DIRECTION('',(0.,-1.,1.183361653159E-16));
#141 = DEFINITIONAL_REPRESENTATION('',(#142),#146);
#142 = LINE('',#143,#144);
#143 = CARTESIAN_POINT('',(0.,0.));
#144 = VECTOR('',#145,1.);
#145 = DIRECTION('',(0.,-1.));
#146 = ( GEOMETRIC_REPRESENTATION_CONTEXT(2) 
PARAMETRIC_REPRESENTATION_CONTEXT() REPRESENTATION_CONTEXT('2D SPACE',''
  ) );
#147 = ADVANCED_FACE('',(#148),#45,.T.);
#148 = FACE_BOUND('',#149,.F.);
#149 = EDGE_LOOP('',(#150,#183,#204,#231,#232,#233,#266,#304,#342));
#150 = ORIENTED_EDGE('',*,*,#151,.T.);
#151 = EDGE_CURVE('',#152,#22,#154,.T.);
#152 = VERTEX_POINT('',#153);
#153 = CARTESIAN_POINT('',(-4.55,3.752776749732,-6.5));
#154 = SURFACE_CURVE('',#155,(#160,#176),.PCURVE_S1.);
#155 = HYPERBOLA('',#156,4.0625,6.5);
#156 = AXIS2_PLACEMENT_3D('',#157,#158,#159);
#157 = CARTESIAN_POINT('',(-9.240970937166,5.629165124599,-3.25));
#158 = DIRECTION('',(0.,-0.866025403784,0.5));
#159 = DIRECTION('',(1.,0.,0.));
#160 = PCURVE('',#45,#161);
#161 = DEFINITIONAL_REPRESENTATION('',(#162),#175);
#162 = B_SPLINE_CURVE_WITH_KNOTS('',6,(#163,#164,#165,#166,#167,#168,
    #169,#170,#171,#172,#173,#174),.UNSPECIFIED.,.F.,.F.,(7,5,7),(
    -0.549306144334,-1.110223024625E-16,0.549306144334),.UNSPECIFIED.);
#163 = CARTESIAN_POINT('',(5.235987755983,2.494883201405E-16));
#164 = CARTESIAN_POINT('',(5.315273268558,-0.214731596556));
#165 = CARTESIAN_POINT('',(5.398913745167,-0.382281860471));
#166 = CARTESIAN_POINT('',(5.486312565683,-0.505890254937));
#167 = CARTESIAN_POINT('',(5.576484910599,-0.587610668046));
#168 = CARTESIAN_POINT('',(5.668035507526,-0.628470937166));
#169 = CARTESIAN_POINT('',(5.851137555637,-0.628470937166));
#170 = CARTESIAN_POINT('',(5.942688152564,-0.587610668046));
#171 = CARTESIAN_POINT('',(6.032860497479,-0.505890254937));
#172 = CARTESIAN_POINT('',(6.120259317996,-0.382281860471));
#173 = CARTESIAN_POINT('',(6.203899794605,-0.214731596556));
#174 = CARTESIAN_POINT('',(6.28318530718,2.494883201405E-16));
#175 = ( GEOMETRIC_REPRESENTATION_CONTEXT(2) 
PARAMETRIC_REPRESENTATION_CONTEXT() REPRESENTATION_CONTEXT('2D SPACE',''
  ) );
#176 = PCURVE('',#82,#177);
#177 = DEFINITIONAL_REPRESENTATION('',(#178),#182);
#178 = ( BOUNDED_CURVE() B_SPLINE_CURVE(2,(#179,#180,#181),
.UNSPECIFIED.,.F.,.F.) B_SPLINE_CURVE_WITH_KNOTS((3,3),(-0.549306144334,
0.549306144334),.PIECEWISE_BEZIER_KNOTS.) CURVE() 
GEOMETRIC_REPRESENTATION_ITEM() RATIONAL_B_SPLINE_CURVE((1.,
1.154700538379,1.)) REPRESENTATION_ITEM('') );
#179 = CARTESIAN_POINT('',(0.,-0.75));
#180 = CARTESIAN_POINT('',(3.752776749733,0.422742734291));
#181 = CARTESIAN_POINT('',(7.505553499465,-0.75));
#182 = ( GEOMETRIC_REPRESENTATION_CONTEXT(2) 
PARAMETRIC_REPRESENTATION_CONTEXT() REPRESENTATION_CONTEXT('2D SPACE',''
  ) );
#183 = ORIENTED_EDGE('',*,*,#184,.T.);
#184 = EDGE_CURVE('',#22,#185,#187,.T.);
#185 = VERTEX_POINT('',#186);
#186 = CARTESIAN_POINT('',(-5.3,6.305553499465,0.));
#187 = SEAM_CURVE('',#188,(#192,#198),.PCURVE_S1.);
#188 = LINE('',#189,#190);
#189 = CARTESIAN_POINT('',(-4.55,7.505553499465,0.));
#190 = VECTOR('',#191,1.);
#191 = DIRECTION('',(-0.529998940003,-0.847998304005,-0.));
#192 = PCURVE('',#45,#193);
#193 = DEFINITIONAL_REPRESENTATION('',(#194),#197);
#194 = B_SPLINE_CURVE_WITH_KNOTS('',1,(#195,#196),.UNSPECIFIED.,.F.,.F.,
  (2,2),(0.,1.415097169808),.PIECEWISE_BEZIER_KNOTS.);
#195 = CARTESIAN_POINT('',(0.,0.));
#196 = CARTESIAN_POINT('',(0.,-0.75));
#197 = ( GEOMETRIC_REPRESENTATION_CONTEXT(2) 
PARAMETRIC_REPRESENTATION_CONTEXT() REPRESENTATION_CONTEXT('2D SPACE',''
  ) );
#198 = PCURVE('',#45,#199);
#199 = DEFINITIONAL_REPRESENTATION('',(#200),#203);
#200 = B_SPLINE_CURVE_WITH_KNOTS('',1,(#201,#202),.UNSPECIFIED.,.F.,.F.,
  (2,2),(0.,1.415097169808),.PIECEWISE_BEZIER_KNOTS.);
#201 = CARTESIAN_POINT('',(6.28318530718,0.));
#202 = CARTESIAN_POINT('',(6.28318530718,-0.75));
#203 = ( GEOMETRIC_REPRESENTATION_CONTEXT(2) 
PARAMETRIC_REPRESENTATION_CONTEXT() REPRESENTATION_CONTEXT('2D SPACE',''
  ) );
#204 = ORIENTED_EDGE('',*,*,#205,.F.);
#205 = EDGE_CURVE('',#185,#185,#206,.T.);
#206 = SURFACE_CURVE('',#207,(#212,#219),.PCURVE_S1.);
#207 = CIRCLE('',#208,6.305553499465);
#208 = AXIS2_PLACEMENT_3D('',#209,#210,#211);
#209 = CARTESIAN_POINT('',(-5.3,0.,0.));
#210 = DIRECTION('',(1.,0.,0.));
#211 = DIRECTION('',(-0.,1.,0.));
#212 = PCURVE('',#45,#213);
#213 = DEFINITIONAL_REPRESENTATION('',(#214),#218);
#214 = LINE('',#215,#216);
#215 = CARTESIAN_POINT('',(0.,-0.75));
#216 = VECTOR('',#217,1.);
#217 = DIRECTION('',(1.,-0.));
#218 = ( GEOMETRIC_REPRESENTATION_CONTEXT(2) 
PARAMETRIC_REPRESENTATION_CONTEXT() REPRESENTATION_CONTEXT('2D SPACE',''
  ) );
#219 = PCURVE('',#220,#225);
#220 = PLANE('',#221);
#221 = AXIS2_PLACEMENT_3D('',#222,#223,#224);
#222 = CARTESIAN_POINT('',(-5.3,-3.643808901334E-16,5.799248783508E-17)
  );
#223 = DIRECTION('',(1.,0.,0.));
#224 = DIRECTION('',(-0.,0.,1.));
#225 = DEFINITIONAL_REPRESENTATION('',(#226),#230);
#226 = CIRCLE('',#227,6.305553499465);
#227 = AXIS2_PLACEMENT_2D('',#228,#229);
#228 = CARTESIAN_POINT('',(-5.799248783508E-17,-3.643808901334E-16));
#229 = DIRECTION('',(0.,-1.));
#230 = ( GEOMETRIC_REPRESENTATION_CONTEXT(2) 
PARAMETRIC_REPRESENTATION_CONTEXT() REPRESENTATION_CONTEXT('2D SPACE',''
  ) );
#231 = ORIENTED_EDGE('',*,*,#184,.F.);
#232 = ORIENTED_EDGE('',*,*,#21,.T.);
#233 = ORIENTED_EDGE('',*,*,#234,.T.);
#234 = EDGE_CURVE('',#24,#235,#237,.T.);
#235 = VERTEX_POINT('',#236);
#236 = CARTESIAN_POINT('',(-4.55,-3.752776749733,6.5));
#237 = SURFACE_CURVE('',#238,(#243,#259),.PCURVE_S1.);
#238 = HYPERBOLA('',#239,4.0625,6.5);
#239 = AXIS2_PLACEMENT_3D('',#240,#241,#242);
#240 = CARTESIAN_POINT('',(-9.240970937166,7.691850745534E-16,6.5));
#241 = DIRECTION('',(0.,-1.183361653159E-16,-1.));
#242 = DIRECTION('',(1.,0.,0.));
#243 = PCURVE('',#45,#244);
#244 = DEFINITIONAL_REPRESENTATION('',(#245),#258);
#245 = B_SPLINE_CURVE_WITH_KNOTS('',6,(#246,#247,#248,#249,#250,#251,
    #252,#253,#254,#255,#256,#257),.UNSPECIFIED.,.F.,.F.,(7,5,7),(
    -0.549306144334,0.,0.549306144334),.UNSPECIFIED.);
#246 = CARTESIAN_POINT('',(1.047197551197,2.494883201405E-16));
#247 = CARTESIAN_POINT('',(1.126483063771,-0.214731596556));
#248 = CARTESIAN_POINT('',(1.21012354038,-0.382281860471));
#249 = CARTESIAN_POINT('',(1.297522360897,-0.505890254937));
#250 = CARTESIAN_POINT('',(1.387694705812,-0.587610668046));
#251 = CARTESIAN_POINT('',(1.479245302739,-0.628470937166));
#252 = CARTESIAN_POINT('',(1.662347350851,-0.628470937166));
#253 = CARTESIAN_POINT('',(1.753897947778,-0.587610668046));
#254 = CARTESIAN_POINT('',(1.844070292693,-0.505890254937));
#255 = CARTESIAN_POINT('',(1.93146911321,-0.382281860471));
#256 = CARTESIAN_POINT('',(2.015109589818,-0.214731596556));
#257 = CARTESIAN_POINT('',(2.094395102393,-1.496929920843E-16));
#258 = ( GEOMETRIC_REPRESENTATION_CONTEXT(2) 
PARAMETRIC_REPRESENTATION_CONTEXT() REPRESENTATION_CONTEXT('2D SPACE',''
  ) );
#259 = PCURVE('',#136,#260);
#260 = DEFINITIONAL_REPRESENTATION('',(#261),#265);
#261 = ( BOUNDED_CURVE() B_SPLINE_CURVE(2,(#262,#263,#264),
.UNSPECIFIED.,.F.,.F.) B_SPLINE_CURVE_WITH_KNOTS((3,3),(-0.549306144334,
0.549306144334),.PIECEWISE_BEZIER_KNOTS.) CURVE() 
GEOMETRIC_REPRESENTATION_ITEM() RATIONAL_B_SPLINE_CURVE((1.,
1.154700538379,1.)) REPRESENTATION_ITEM('') );
#262 = CARTESIAN_POINT('',(1.7763568394E-15,-0.75));
#263 = CARTESIAN_POINT('',(3.752776749733,0.422742734291));
#264 = CARTESIAN_POINT('',(7.505553499465,-0.75));
#265 = ( GEOMETRIC_REPRESENTATION_CONTEXT(2) 
PARAMETRIC_REPRESENTATION_CONTEXT() REPRESENTATION_CONTEXT('2D SPACE',''
  ) );
#266 = ORIENTED_EDGE('',*,*,#267,.T.);
#267 = EDGE_CURVE('',#235,#268,#270,.T.);
#268 = VERTEX_POINT('',#269);
#269 = CARTESIAN_POINT('',(-4.55,-7.505553499465,-3.390606377457E-13));
#270 = SURFACE_CURVE('',#271,(#276,#292),.PCURVE_S1.);
#271 = HYPERBOLA('',#272,4.0625,6.5);
#272 = AXIS2_PLACEMENT_3D('',#273,#274,#275);
#273 = CARTESIAN_POINT('',(-9.240970937166,-5.629165124599,3.25));
#274 = DIRECTION('',(0.,0.866025403784,-0.5));
#275 = DIRECTION('',(1.,-0.,0.));
#276 = PCURVE('',#45,#277);
#277 = DEFINITIONAL_REPRESENTATION('',(#278),#291);
#278 = B_SPLINE_CURVE_WITH_KNOTS('',6,(#279,#280,#281,#282,#283,#284,
    #285,#286,#287,#288,#289,#290),.UNSPECIFIED.,.F.,.F.,(7,5,7),(
    -0.549306144334,0.,0.549306144334),.UNSPECIFIED.);
#279 = CARTESIAN_POINT('',(2.094395102393,6.486696323653E-16));
#280 = CARTESIAN_POINT('',(2.173680614968,-0.214731596556));
#281 = CARTESIAN_POINT('',(2.257321091577,-0.382281860471));
#282 = CARTESIAN_POINT('',(2.344719912093,-0.505890254937));
#283 = CARTESIAN_POINT('',(2.434892257009,-0.587610668046));
#284 = CARTESIAN_POINT('',(2.526442853936,-0.628470937166));
#285 = CARTESIAN_POINT('',(2.709544902047,-0.628470937166));
#286 = CARTESIAN_POINT('',(2.801095498974,-0.587610668046));
#287 = CARTESIAN_POINT('',(2.891267843889,-0.505890254937));
#288 = CARTESIAN_POINT('',(2.978666664406,-0.382281860471));
#289 = CARTESIAN_POINT('',(3.062307141015,-0.214731596556));
#290 = CARTESIAN_POINT('',(3.14159265359,6.486696323653E-16));
#291 = ( GEOMETRIC_REPRESENTATION_CONTEXT(2) 
PARAMETRIC_REPRESENTATION_CONTEXT() REPRESENTATION_CONTEXT('2D SPACE',''
  ) );
#292 = PCURVE('',#293,#298);
#293 = PLANE('',#294);
#294 = AXIS2_PLACEMENT_3D('',#295,#296,#297);
#295 = CARTESIAN_POINT('',(-5.3,-3.752776749733,6.5));
#296 = DIRECTION('',(0.,0.866025403784,-0.5));
#297 = DIRECTION('',(0.,-0.5,-0.866025403784));
#298 = DEFINITIONAL_REPRESENTATION('',(#299),#303);
#299 = ( BOUNDED_CURVE() B_SPLINE_CURVE(2,(#300,#301,#302),
.UNSPECIFIED.,.F.,.F.) B_SPLINE_CURVE_WITH_KNOTS((3,3),(-0.549306144334,
0.549306144334),.PIECEWISE_BEZIER_KNOTS.) CURVE() 
GEOMETRIC_REPRESENTATION_ITEM() RATIONAL_B_SPLINE_CURVE((1.,
1.154700538379,1.)) REPRESENTATION_ITEM('') );
#300 = CARTESIAN_POINT('',(-8.881784197001E-16,-0.75));
#301 = CARTESIAN_POINT('',(3.752776749733,0.422742734291));
#302 = CARTESIAN_POINT('',(7.505553499465,-0.75));
#303 = ( GEOMETRIC_REPRESENTATION_CONTEXT(2) 
PARAMETRIC_REPRESENTATION_CONTEXT() REPRESENTATION_CONTEXT('2D SPACE',''
  ) );
#304 = ORIENTED_EDGE('',*,*,#305,.T.);
#305 = EDGE_CURVE('',#268,#306,#308,.T.);
#306 = VERTEX_POINT('',#307);
#307 = CARTESIAN_POINT('',(-4.55,-3.752776749733,-6.5));
#308 = SURFACE_CURVE('',#309,(#314,#330),.PCURVE_S1.);
#309 = HYPERBOLA('',#310,4.0625,6.5);
#310 = AXIS2_PLACEMENT_3D('',#311,#312,#313);
#311 = CARTESIAN_POINT('',(-9.240970937166,-5.629165124599,-3.25));
#312 = DIRECTION('',(-0.,0.866025403784,0.5));
#313 = DIRECTION('',(1.,0.,0.));
#314 = PCURVE('',#45,#315);
#315 = DEFINITIONAL_REPRESENTATION('',(#316),#329);
#316 = B_SPLINE_CURVE_WITH_KNOTS('',6,(#317,#318,#319,#320,#321,#322,
    #323,#324,#325,#326,#327,#328),.UNSPECIFIED.,.F.,.F.,(7,5,7),(
    -0.549306144334,-1.110223024625E-16,0.549306144334),.UNSPECIFIED.);
#317 = CARTESIAN_POINT('',(3.14159265359,-3.991813122248E-16));
#318 = CARTESIAN_POINT('',(3.220878166164,-0.214731596556));
#319 = CARTESIAN_POINT('',(3.304518642773,-0.382281860471));
#320 = CARTESIAN_POINT('',(3.39191746329,-0.505890254937));
#321 = CARTESIAN_POINT('',(3.482089808205,-0.587610668046));
#322 = CARTESIAN_POINT('',(3.573640405132,-0.628470937166));
#323 = CARTESIAN_POINT('',(3.756742453244,-0.628470937166));
#324 = CARTESIAN_POINT('',(3.848293050171,-0.587610668046));
#325 = CARTESIAN_POINT('',(3.938465395086,-0.505890254937));
#326 = CARTESIAN_POINT('',(4.025864215603,-0.382281860471));
#327 = CARTESIAN_POINT('',(4.109504692212,-0.214731596556));
#328 = CARTESIAN_POINT('',(4.188790204786,-7.983626244496E-16));
#329 = ( GEOMETRIC_REPRESENTATION_CONTEXT(2) 
PARAMETRIC_REPRESENTATION_CONTEXT() REPRESENTATION_CONTEXT('2D SPACE',''
  ) );
#330 = PCURVE('',#331,#336);
#331 = PLANE('',#332);
#332 = AXIS2_PLACEMENT_3D('',#333,#334,#335);
#333 = CARTESIAN_POINT('',(-5.3,-7.505553499465,9.191652068949E-16));
#334 = DIRECTION('',(-0.,0.866025403784,0.5));
#335 = DIRECTION('',(0.,0.5,-0.866025403784));
#336 = DEFINITIONAL_REPRESENTATION('',(#337),#341);
#337 = ( BOUNDED_CURVE() B_SPLINE_CURVE(2,(#338,#339,#340),
.UNSPECIFIED.,.F.,.F.) B_SPLINE_CURVE_WITH_KNOTS((3,3),(-0.549306144334,
0.549306144334),.PIECEWISE_BEZIER_KNOTS.) CURVE() 
GEOMETRIC_REPRESENTATION_ITEM() RATIONAL_B_SPLINE_CURVE((1.,
1.154700538379,1.)) REPRESENTATION_ITEM('') );
#338 = CARTESIAN_POINT('',(3.552713678801E-15,-0.75));
#339 = CARTESIAN_POINT('',(3.752776749733,0.422742734291));
#340 = CARTESIAN_POINT('',(7.505553499465,-0.75));
#341 = ( GEOMETRIC_REPRESENTATION_CONTEXT(2) 
PARAMETRIC_REPRESENTATION_CONTEXT() REPRESENTATION_CONTEXT('2D SPACE',''
  ) );
#342 = ORIENTED_EDGE('',*,*,#343,.T.);
#343 = EDGE_CURVE('',#306,#152,#344,.T.);
#344 = SURFACE_CURVE('',#345,(#350,#366),.PCURVE_S1.);
#345 = HYPERBOLA('',#346,4.0625,6.5);
#346 = AXIS2_PLACEMENT_3D('',#347,#348,#349);
#347 = CARTESIAN_POINT('',(-9.240970937166,-3.076740298214E-15,-6.5));
#348 = DIRECTION('',(-0.,4.733446612636E-16,1.));
#349 = DIRECTION('',(1.,0.,0.));
#350 = PCURVE('',#45,#351);
#351 = DEFINITIONAL_REPRESENTATION('',(#352),#365);
#352 = B_SPLINE_CURVE_WITH_KNOTS('',6,(#353,#354,#355,#356,#357,#358,
    #359,#360,#361,#362,#363,#364),.UNSPECIFIED.,.F.,.F.,(7,5,7),(
    -0.549306144334,-1.110223024625E-16,0.549306144334),.UNSPECIFIED.);
#353 = CARTESIAN_POINT('',(4.188790204786,6.486696323653E-16));
#354 = CARTESIAN_POINT('',(4.268075717361,-0.214731596556));
#355 = CARTESIAN_POINT('',(4.35171619397,-0.382281860471));
#356 = CARTESIAN_POINT('',(4.439115014487,-0.505890254937));
#357 = CARTESIAN_POINT('',(4.529287359402,-0.587610668046));
#358 = CARTESIAN_POINT('',(4.620837956329,-0.628470937166));
#359 = CARTESIAN_POINT('',(4.80394000444,-0.628470937166));
#360 = CARTESIAN_POINT('',(4.895490601367,-0.587610668046));
#361 = CARTESIAN_POINT('',(4.985662946283,-0.505890254937));
#362 = CARTESIAN_POINT('',(5.073061766799,-0.382281860471));
#363 = CARTESIAN_POINT('',(5.156702243408,-0.214731596556));
#364 = CARTESIAN_POINT('',(5.235987755983,2.494883201405E-16));
#365 = ( GEOMETRIC_REPRESENTATION_CONTEXT(2) 
PARAMETRIC_REPRESENTATION_CONTEXT() REPRESENTATION_CONTEXT('2D SPACE',''
  ) );
#366 = PCURVE('',#367,#372);
#367 = PLANE('',#368);
#368 = AXIS2_PLACEMENT_3D('',#369,#370,#371);
#369 = CARTESIAN_POINT('',(-5.3,-3.752776749733,-6.5));
#370 = DIRECTION('',(-0.,4.733446612636E-16,1.));
#371 = DIRECTION('',(0.,1.,-4.733446612636E-16));
#372 = DEFINITIONAL_REPRESENTATION('',(#373),#377);
#373 = ( BOUNDED_CURVE() B_SPLINE_CURVE(2,(#374,#375,#376),
.UNSPECIFIED.,.F.,.F.) B_SPLINE_CURVE_WITH_KNOTS((3,3),(-0.549306144334,
0.549306144334),.PIECEWISE_BEZIER_KNOTS.) CURVE() 
GEOMETRIC_REPRESENTATION_ITEM() RATIONAL_B_SPLINE_CURVE((1.,
1.154700538379,1.)) REPRESENTATION_ITEM('') );
#374 = CARTESIAN_POINT('',(0.,-0.75));
#375 = CARTESIAN_POINT('',(3.752776749733,0.422742734291));
#376 = CARTESIAN_POINT('',(7.505553499465,-0.75));
#377 = ( GEOMETRIC_REPRESENTATION_CONTEXT(2) 
PARAMETRIC_REPRESENTATION_CONTEXT() REPRESENTATION_CONTEXT('2D SPACE',''
  ) );
#378 = ADVANCED_FACE('',(#379),#136,.F.);
#379 = FACE_BOUND('',#380,.F.);
#380 = EDGE_LOOP('',(#381,#382,#383,#406));
#381 = ORIENTED_EDGE('',*,*,#234,.F.);
#382 = ORIENTED_EDGE('',*,*,#122,.T.);
#383 = ORIENTED_EDGE('',*,*,#384,.T.);
#384 = EDGE_CURVE('',#95,#385,#387,.T.);
#385 = VERTEX_POINT('',#386);
#386 = CARTESIAN_POINT('',(0.,-3.752776749733,6.5));
#387 = SURFACE_CURVE('',#388,(#392,#399),.PCURVE_S1.);
#388 = LINE('',#389,#390);
#389 = CARTESIAN_POINT('',(0.,3.752776749733,6.5));
#390 = VECTOR('',#391,1.);
#391 = DIRECTION('',(0.,-1.,1.183361653159E-16));
#392 = PCURVE('',#136,#393);
#393 = DEFINITIONAL_REPRESENTATION('',(#394),#398);
#394 = LINE('',#395,#396);
#395 = CARTESIAN_POINT('',(0.,-5.3));
#396 = VECTOR('',#397,1.);
#397 = DIRECTION('',(1.,0.));
#398 = ( GEOMETRIC_REPRESENTATION_CONTEXT(2) 
PARAMETRIC_REPRESENTATION_CONTEXT() REPRESENTATION_CONTEXT('2D SPACE',''
  ) );
#399 = PCURVE('',#110,#400);
#400 = DEFINITIONAL_REPRESENTATION('',(#401),#405);
#401 = LINE('',#402,#403);
#402 = CARTESIAN_POINT('',(6.5,-3.752776749733));
#403 = VECTOR('',#404,1.);
#404 = DIRECTION('',(1.183361653159E-16,1.));
#405 = ( GEOMETRIC_REPRESENTATION_CONTEXT(2) 
PARAMETRIC_REPRESENTATION_CONTEXT() REPRESENTATION_CONTEXT('2D SPACE',''
  ) );
#406 = ORIENTED_EDGE('',*,*,#407,.F.);
#407 = EDGE_CURVE('',#235,#385,#408,.T.);
#408 = SURFACE_CURVE('',#409,(#413,#420),.PCURVE_S1.);
#409 = LINE('',#410,#411);
#410 = CARTESIAN_POINT('',(-5.3,-3.752776749733,6.5));
#411 = VECTOR('',#412,1.);
#412 = DIRECTION('',(1.,0.,0.));
#413 = PCURVE('',#136,#414);
#414 = DEFINITIONAL_REPRESENTATION('',(#415),#419);
#415 = LINE('',#416,#417);
#416 = CARTESIAN_POINT('',(7.505553499465,0.));
#417 = VECTOR('',#418,1.);
#418 = DIRECTION('',(0.,-1.));
#419 = ( GEOMETRIC_REPRESENTATION_CONTEXT(2) 
PARAMETRIC_REPRESENTATION_CONTEXT() REPRESENTATION_CONTEXT('2D SPACE',''
  ) );
#420 = PCURVE('',#293,#421);
#421 = DEFINITIONAL_REPRESENTATION('',(#422),#426);
#422 = LINE('',#423,#424);
#423 = CARTESIAN_POINT('',(0.,0.));
#424 = VECTOR('',#425,1.);
#425 = DIRECTION('',(0.,-1.));
#426 = ( GEOMETRIC_REPRESENTATION_CONTEXT(2) 
PARAMETRIC_REPRESENTATION_CONTEXT() REPRESENTATION_CONTEXT('2D SPACE',''
  ) );
#427 = ADVANCED_FACE('',(#428,#522),#110,.T.);
#428 = FACE_BOUND('',#429,.T.);
#429 = EDGE_LOOP('',(#430,#431,#432,#455,#478,#501));
#430 = ORIENTED_EDGE('',*,*,#94,.T.);
#431 = ORIENTED_EDGE('',*,*,#384,.T.);
#432 = ORIENTED_EDGE('',*,*,#433,.T.);
#433 = EDGE_CURVE('',#385,#434,#436,.T.);
#434 = VERTEX_POINT('',#435);
#435 = CARTESIAN_POINT('',(0.,-7.505553499465,9.191652068949E-16));
#436 = SURFACE_CURVE('',#437,(#441,#448),.PCURVE_S1.);
#437 = LINE('',#438,#439);
#438 = CARTESIAN_POINT('',(0.,-3.752776749733,6.5));
#439 = VECTOR('',#440,1.);
#440 = DIRECTION('',(0.,-0.5,-0.866025403784));
#441 = PCURVE('',#110,#442);
#442 = DEFINITIONAL_REPRESENTATION('',(#443),#447);
#443 = LINE('',#444,#445);
#444 = CARTESIAN_POINT('',(6.5,3.752776749733));
#445 = VECTOR('',#446,1.);
#446 = DIRECTION('',(-0.866025403784,0.5));
#447 = ( GEOMETRIC_REPRESENTATION_CONTEXT(2) 
PARAMETRIC_REPRESENTATION_CONTEXT() REPRESENTATION_CONTEXT('2D SPACE',''
  ) );
#448 = PCURVE('',#293,#449);
#449 = DEFINITIONAL_REPRESENTATION('',(#450),#454);
#450 = LINE('',#451,#452);
#451 = CARTESIAN_POINT('',(0.,-5.3));
#452 = VECTOR('',#453,1.);
#453 = DIRECTION('',(1.,0.));
#454 = ( GEOMETRIC_REPRESENTATION_CONTEXT(2) 
PARAMETRIC_REPRESENTATION_CONTEXT() REPRESENTATION_CONTEXT('2D SPACE',''
  ) );
#455 = ORIENTED_EDGE('',*,*,#456,.T.);
#456 = EDGE_CURVE('',#434,#457,#459,.T.);
#457 = VERTEX_POINT('',#458);
#458 = CARTESIAN_POINT('',(0.,-3.752776749733,-6.5));
#459 = SURFACE_CURVE('',#460,(#464,#471),.PCURVE_S1.);
#460 = LINE('',#461,#462);
#461 = CARTESIAN_POINT('',(0.,-7.505553499465,9.191652068949E-16));
#462 = VECTOR('',#463,1.);
#463 = DIRECTION('',(0.,0.5,-0.866025403784));
#464 = PCURVE('',#110,#465);
#465 = DEFINITIONAL_REPRESENTATION('',(#466),#470);
#466 = LINE('',#467,#468);
#467 = CARTESIAN_POINT('',(1.313619091281E-15,7.505553499465));
#468 = VECTOR('',#469,1.);
#469 = DIRECTION('',(-0.866025403784,-0.5));
#470 = ( GEOMETRIC_REPRESENTATION_CONTEXT(2) 
PARAMETRIC_REPRESENTATION_CONTEXT() REPRESENTATION_CONTEXT('2D SPACE',''
  ) );
#471 = PCURVE('',#331,#472);
#472 = DEFINITIONAL_REPRESENTATION('',(#473),#477);
#473 = LINE('',#474,#475);
#474 = CARTESIAN_POINT('',(0.,-5.3));
#475 = VECTOR('',#476,1.);
#476 = DIRECTION('',(1.,0.));
#477 = ( GEOMETRIC_REPRESENTATION_CONTEXT(2) 
PARAMETRIC_REPRESENTATION_CONTEXT() REPRESENTATION_CONTEXT('2D SPACE',''
  ) );
#478 = ORIENTED_EDGE('',*,*,#479,.T.);
#479 = EDGE_CURVE('',#457,#480,#482,.T.);
#480 = VERTEX_POINT('',#481);
#481 = CARTESIAN_POINT('',(0.,3.752776749733,-6.5));
#482 = SURFACE_CURVE('',#483,(#487,#494),.PCURVE_S1.);
#483 = LINE('',#484,#485);
#484 = CARTESIAN_POINT('',(0.,-3.752776749733,-6.5));
#485 = VECTOR('',#486,1.);
#486 = DIRECTION('',(0.,1.,-4.733446612636E-16));
#487 = PCURVE('',#110,#488);
#488 = DEFINITIONAL_REPRESENTATION('',(#489),#493);
#489 = LINE('',#490,#491);
#490 = CARTESIAN_POINT('',(-6.5,3.752776749733));
#491 = VECTOR('',#492,1.);
#492 = DIRECTION('',(-4.733446612636E-16,-1.));
#493 = ( GEOMETRIC_REPRESENTATION_CONTEXT(2) 
PARAMETRIC_REPRESENTATION_CONTEXT() REPRESENTATION_CONTEXT('2D SPACE',''
  ) );
#494 = PCURVE('',#367,#495);
#495 = DEFINITIONAL_REPRESENTATION('',(#496),#500);
#496 = LINE('',#497,#498);
#497 = CARTESIAN_POINT('',(0.,-5.3));
#498 = VECTOR('',#499,1.);
#499 = DIRECTION('',(1.,0.));
#500 = ( GEOMETRIC_REPRESENTATION_CONTEXT(2) 
PARAMETRIC_REPRESENTATION_CONTEXT() REPRESENTATION_CONTEXT('2D SPACE',''
  ) );
#501 = ORIENTED_EDGE('',*,*,#502,.T.);
#502 = EDGE_CURVE('',#480,#67,#503,.T.);
#503 = SURFACE_CURVE('',#504,(#508,#515),.PCURVE_S1.);
#504 = LINE('',#505,#506);
#505 = CARTESIAN_POINT('',(0.,3.752776749733,-6.5));
#506 = VECTOR('',#507,1.);
#507 = DIRECTION('',(0.,0.5,0.866025403784));
#508 = PCURVE('',#110,#509);
#509 = DEFINITIONAL_REPRESENTATION('',(#510),#514);
#510 = LINE('',#511,#512);
#511 = CARTESIAN_POINT('',(-6.5,-3.752776749733));
#512 = VECTOR('',#513,1.);
#513 = DIRECTION('',(0.866025403784,-0.5));
#514 = ( GEOMETRIC_REPRESENTATION_CONTEXT(2) 
PARAMETRIC_REPRESENTATION_CONTEXT() REPRESENTATION_CONTEXT('2D SPACE',''
  ) );
#515 = PCURVE('',#82,#516);
#516 = DEFINITIONAL_REPRESENTATION('',(#517),#521);
#517 = LINE('',#518,#519);
#518 = CARTESIAN_POINT('',(0.,-5.3));
#519 = VECTOR('',#520,1.);
#520 = DIRECTION('',(1.,0.));
#521 = ( GEOMETRIC_REPRESENTATION_CONTEXT(2) 
PARAMETRIC_REPRESENTATION_CONTEXT() REPRESENTATION_CONTEXT('2D SPACE',''
  ) );
#522 = FACE_BOUND('',#523,.T.);
#523 = EDGE_LOOP('',(#524));
#524 = ORIENTED_EDGE('',*,*,#525,.F.);
#525 = EDGE_CURVE('',#526,#526,#528,.T.);
#526 = VERTEX_POINT('',#527);
#527 = CARTESIAN_POINT('',(0.,4.,0.));
#528 = SURFACE_CURVE('',#529,(#534,#541),.PCURVE_S1.);
#529 = CIRCLE('',#530,4.);
#530 = AXIS2_PLACEMENT_3D('',#531,#532,#533);
#531 = CARTESIAN_POINT('',(0.,0.,0.));
#532 = DIRECTION('',(1.,0.,0.));
#533 = DIRECTION('',(0.,1.,0.));
#534 = PCURVE('',#110,#535);
#535 = DEFINITIONAL_REPRESENTATION('',(#536),#540);
#536 = CIRCLE('',#537,4.);
#537 = AXIS2_PLACEMENT_2D('',#538,#539);
#538 = CARTESIAN_POINT('',(3.944538843864E-16,-3.155631075091E-16));
#539 = DIRECTION('',(0.,-1.));
#540 = ( GEOMETRIC_REPRESENTATION_CONTEXT(2) 
PARAMETRIC_REPRESENTATION_CONTEXT() REPRESENTATION_CONTEXT('2D SPACE',''
  ) );
#541 = PCURVE('',#542,#547);
#542 = CYLINDRICAL_SURFACE('',#543,4.);
#543 = AXIS2_PLACEMENT_3D('',#544,#545,#546);
#544 = CARTESIAN_POINT('',(0.,0.,0.));
#545 = DIRECTION('',(-1.,-0.,-0.));
#546 = DIRECTION('',(0.,1.,0.));
#547 = DEFINITIONAL_REPRESENTATION('',(#548),#552);
#548 = LINE('',#549,#550);
#549 = CARTESIAN_POINT('',(-0.,0.));
#550 = VECTOR('',#551,1.);
#551 = DIRECTION('',(-1.,0.));
#552 = ( GEOMETRIC_REPRESENTATION_CONTEXT(2) 
PARAMETRIC_REPRESENTATION_CONTEXT() REPRESENTATION_CONTEXT('2D SPACE',''
  ) );
#553 = ADVANCED_FACE('',(#554),#82,.F.);
#554 = FACE_BOUND('',#555,.F.);
#555 = EDGE_LOOP('',(#556,#557,#578,#579));
#556 = ORIENTED_EDGE('',*,*,#151,.F.);
#557 = ORIENTED_EDGE('',*,*,#558,.T.);
#558 = EDGE_CURVE('',#152,#480,#559,.T.);
#559 = SURFACE_CURVE('',#560,(#564,#571),.PCURVE_S1.);
#560 = LINE('',#561,#562);
#561 = CARTESIAN_POINT('',(-5.3,3.752776749733,-6.5));
#562 = VECTOR('',#563,1.);
#563 = DIRECTION('',(1.,0.,0.));
#564 = PCURVE('',#82,#565);
#565 = DEFINITIONAL_REPRESENTATION('',(#566),#570);
#566 = LINE('',#567,#568);
#567 = CARTESIAN_POINT('',(0.,0.));
#568 = VECTOR('',#569,1.);
#569 = DIRECTION('',(0.,-1.));
#570 = ( GEOMETRIC_REPRESENTATION_CONTEXT(2) 
PARAMETRIC_REPRESENTATION_CONTEXT() REPRESENTATION_CONTEXT('2D SPACE',''
  ) );
#571 = PCURVE('',#367,#572);
#572 = DEFINITIONAL_REPRESENTATION('',(#573),#577);
#573 = LINE('',#574,#575);
#574 = CARTESIAN_POINT('',(7.505553499465,0.));
#575 = VECTOR('',#576,1.);
#576 = DIRECTION('',(0.,-1.));
#577 = ( GEOMETRIC_REPRESENTATION_CONTEXT(2) 
PARAMETRIC_REPRESENTATION_CONTEXT() REPRESENTATION_CONTEXT('2D SPACE',''
  ) );
#578 = ORIENTED_EDGE('',*,*,#502,.T.);
#579 = ORIENTED_EDGE('',*,*,#66,.F.);
#580 = ADVANCED_FACE('',(#581),#367,.F.);
#581 = FACE_BOUND('',#582,.F.);
#582 = EDGE_LOOP('',(#583,#584,#605,#606));
#583 = ORIENTED_EDGE('',*,*,#343,.F.);
#584 = ORIENTED_EDGE('',*,*,#585,.T.);
#585 = EDGE_CURVE('',#306,#457,#586,.T.);
#586 = SURFACE_CURVE('',#587,(#591,#598),.PCURVE_S1.);
#587 = LINE('',#588,#589);
#588 = CARTESIAN_POINT('',(-5.3,-3.752776749733,-6.5));
#589 = VECTOR('',#590,1.);
#590 = DIRECTION('',(1.,0.,0.));
#591 = PCURVE('',#367,#592);
#592 = DEFINITIONAL_REPRESENTATION('',(#593),#597);
#593 = LINE('',#594,#595);
#594 = CARTESIAN_POINT('',(0.,0.));
#595 = VECTOR('',#596,1.);
#596 = DIRECTION('',(0.,-1.));
#597 = ( GEOMETRIC_REPRESENTATION_CONTEXT(2) 
PARAMETRIC_REPRESENTATION_CONTEXT() REPRESENTATION_CONTEXT('2D SPACE',''
  ) );
#598 = PCURVE('',#331,#599);
#599 = DEFINITIONAL_REPRESENTATION('',(#600),#604);
#600 = LINE('',#601,#602);
#601 = CARTESIAN_POINT('',(7.505553499465,0.));
#602 = VECTOR('',#603,1.);
#603 = DIRECTION('',(0.,-1.));
#604 = ( GEOMETRIC_REPRESENTATION_CONTEXT(2) 
PARAMETRIC_REPRESENTATION_CONTEXT() REPRESENTATION_CONTEXT('2D SPACE',''
  ) );
#605 = ORIENTED_EDGE('',*,*,#479,.T.);
#606 = ORIENTED_EDGE('',*,*,#558,.F.);
#607 = ADVANCED_FACE('',(#608),#331,.F.);
#608 = FACE_BOUND('',#609,.F.);
#609 = EDGE_LOOP('',(#610,#611,#632,#633));
#610 = ORIENTED_EDGE('',*,*,#305,.F.);
#611 = ORIENTED_EDGE('',*,*,#612,.T.);
#612 = EDGE_CURVE('',#268,#434,#613,.T.);
#613 = SURFACE_CURVE('',#614,(#618,#625),.PCURVE_S1.);
#614 = LINE('',#615,#616);
#615 = CARTESIAN_POINT('',(-5.3,-7.505553499465,9.191652068949E-16));
#616 = VECTOR('',#617,1.);
#617 = DIRECTION('',(1.,0.,0.));
#618 = PCURVE('',#331,#619);
#619 = DEFINITIONAL_REPRESENTATION('',(#620),#624);
#620 = LINE('',#621,#622);
#621 = CARTESIAN_POINT('',(0.,0.));
#622 = VECTOR('',#623,1.);
#623 = DIRECTION('',(0.,-1.));
#624 = ( GEOMETRIC_REPRESENTATION_CONTEXT(2) 
PARAMETRIC_REPRESENTATION_CONTEXT() REPRESENTATION_CONTEXT('2D SPACE',''
  ) );
#625 = PCURVE('',#293,#626);
#626 = DEFINITIONAL_REPRESENTATION('',(#627),#631);
#627 = LINE('',#628,#629);
#628 = CARTESIAN_POINT('',(7.505553499465,0.));
#629 = VECTOR('',#630,1.);
#630 = DIRECTION('',(0.,-1.));
#631 = ( GEOMETRIC_REPRESENTATION_CONTEXT(2) 
PARAMETRIC_REPRESENTATION_CONTEXT() REPRESENTATION_CONTEXT('2D SPACE',''
  ) );
#632 = ORIENTED_EDGE('',*,*,#456,.T.);
#633 = ORIENTED_EDGE('',*,*,#585,.F.);
#634 = ADVANCED_FACE('',(#635),#293,.F.);
#635 = FACE_BOUND('',#636,.F.);
#636 = EDGE_LOOP('',(#637,#638,#639,#640));
#637 = ORIENTED_EDGE('',*,*,#267,.F.);
#638 = ORIENTED_EDGE('',*,*,#407,.T.);
#639 = ORIENTED_EDGE('',*,*,#433,.T.);
#640 = ORIENTED_EDGE('',*,*,#612,.F.);
#641 = ADVANCED_FACE('',(#642),#220,.F.);
#642 = FACE_BOUND('',#643,.F.);
#643 = EDGE_LOOP('',(#644));
#644 = ORIENTED_EDGE('',*,*,#205,.T.);
#645 = ADVANCED_FACE('',(#646),#542,.T.);
#646 = FACE_BOUND('',#647,.F.);
#647 = EDGE_LOOP('',(#648,#671,#698,#699));
#648 = ORIENTED_EDGE('',*,*,#649,.T.);
#649 = EDGE_CURVE('',#526,#650,#652,.T.);
#650 = VERTEX_POINT('',#651);
#651 = CARTESIAN_POINT('',(19.2,4.,0.));
#652 = SEAM_CURVE('',#653,(#657,#664),.PCURVE_S1.);
#653 = LINE('',#654,#655);
#654 = CARTESIAN_POINT('',(0.,4.,0.));
#655 = VECTOR('',#656,1.);
#656 = DIRECTION('',(1.,0.,0.));
#657 = PCURVE('',#542,#658);
#658 = DEFINITIONAL_REPRESENTATION('',(#659),#663);
#659 = LINE('',#660,#661);
#660 = CARTESIAN_POINT('',(-0.,0.));
#661 = VECTOR('',#662,1.);
#662 = DIRECTION('',(-0.,-1.));
#663 = ( GEOMETRIC_REPRESENTATION_CONTEXT(2) 
PARAMETRIC_REPRESENTATION_CONTEXT() REPRESENTATION_CONTEXT('2D SPACE',''
  ) );
#664 = PCURVE('',#542,#665);
#665 = DEFINITIONAL_REPRESENTATION('',(#666),#670);
#666 = LINE('',#667,#668);
#667 = CARTESIAN_POINT('',(-6.28318530718,0.));
#668 = VECTOR('',#669,1.);
#669 = DIRECTION('',(-0.,-1.));
#670 = ( GEOMETRIC_REPRESENTATION_CONTEXT(2) 
PARAMETRIC_REPRESENTATION_CONTEXT() REPRESENTATION_CONTEXT('2D SPACE',''
  ) );
#671 = ORIENTED_EDGE('',*,*,#672,.T.);
#672 = EDGE_CURVE('',#650,#650,#673,.T.);
#673 = SURFACE_CURVE('',#674,(#679,#686),.PCURVE_S1.);
#674 = CIRCLE('',#675,4.);
#675 = AXIS2_PLACEMENT_3D('',#676,#677,#678);
#676 = CARTESIAN_POINT('',(19.2,0.,0.));
#677 = DIRECTION('',(1.,0.,0.));
#678 = DIRECTION('',(-0.,1.,0.));
#679 = PCURVE('',#542,#680);
#680 = DEFINITIONAL_REPRESENTATION('',(#681),#685);
#681 = LINE('',#682,#683);
#682 = CARTESIAN_POINT('',(-0.,-19.2));
#683 = VECTOR('',#684,1.);
#684 = DIRECTION('',(-1.,0.));
#685 = ( GEOMETRIC_REPRESENTATION_CONTEXT(2) 
PARAMETRIC_REPRESENTATION_CONTEXT() REPRESENTATION_CONTEXT('2D SPACE',''
  ) );
#686 = PCURVE('',#687,#692);
#687 = CONICAL_SURFACE('',#688,4.,0.785398163397);
#688 = AXIS2_PLACEMENT_3D('',#689,#690,#691);
#689 = CARTESIAN_POINT('',(19.2,0.,0.));
#690 = DIRECTION('',(-1.,-0.,-0.));
#691 = DIRECTION('',(0.,1.,0.));
#692 = DEFINITIONAL_REPRESENTATION('',(#693),#697);
#693 = LINE('',#694,#695);
#694 = CARTESIAN_POINT('',(-0.,-0.));
#695 = VECTOR('',#696,1.);
#696 = DIRECTION('',(-1.,-0.));
#697 = ( GEOMETRIC_REPRESENTATION_CONTEXT(2) 
PARAMETRIC_REPRESENTATION_CONTEXT() REPRESENTATION_CONTEXT('2D SPACE',''
  ) );
#698 = ORIENTED_EDGE('',*,*,#649,.F.);
#699 = ORIENTED_EDGE('',*,*,#525,.F.);
#700 = ADVANCED_FACE('',(#701),#687,.T.);
#701 = FACE_BOUND('',#702,.T.);
#702 = EDGE_LOOP('',(#703,#724,#725,#726));
#703 = ORIENTED_EDGE('',*,*,#704,.F.);
#704 = EDGE_CURVE('',#650,#705,#707,.T.);
#705 = VERTEX_POINT('',#706);
#706 = CARTESIAN_POINT('',(20.,3.2,0.));
#707 = SEAM_CURVE('',#708,(#712,#718),.PCURVE_S1.);
#708 = LINE('',#709,#710);
#709 = CARTESIAN_POINT('',(19.2,4.,0.));
#710 = VECTOR('',#711,1.);
#711 = DIRECTION('',(0.707106781187,-0.707106781187,0.));
#712 = PCURVE('',#687,#713);
#713 = DEFINITIONAL_REPRESENTATION('',(#714),#717);
#714 = B_SPLINE_CURVE_WITH_KNOTS('',1,(#715,#716),.UNSPECIFIED.,.F.,.F.,
  (2,2),(0.,1.131370849898),.PIECEWISE_BEZIER_KNOTS.);
#715 = CARTESIAN_POINT('',(0.,0.));
#716 = CARTESIAN_POINT('',(0.,-0.8));
#717 = ( GEOMETRIC_REPRESENTATION_CONTEXT(2) 
PARAMETRIC_REPRESENTATION_CONTEXT() REPRESENTATION_CONTEXT('2D SPACE',''
  ) );
#718 = PCURVE('',#687,#719);
#719 = DEFINITIONAL_REPRESENTATION('',(#720),#723);
#720 = B_SPLINE_CURVE_WITH_KNOTS('',1,(#721,#722),.UNSPECIFIED.,.F.,.F.,
  (2,2),(0.,1.131370849898),.PIECEWISE_BEZIER_KNOTS.);
#721 = CARTESIAN_POINT('',(-6.28318530718,0.));
#722 = CARTESIAN_POINT('',(-6.28318530718,-0.8));
#723 = ( GEOMETRIC_REPRESENTATION_CONTEXT(2) 
PARAMETRIC_REPRESENTATION_CONTEXT() REPRESENTATION_CONTEXT('2D SPACE',''
  ) );
#724 = ORIENTED_EDGE('',*,*,#672,.T.);
#725 = ORIENTED_EDGE('',*,*,#704,.T.);
#726 = ORIENTED_EDGE('',*,*,#727,.F.);
#727 = EDGE_CURVE('',#705,#705,#728,.T.);
#728 = SURFACE_CURVE('',#729,(#734,#741),.PCURVE_S1.);
#729 = CIRCLE('',#730,3.2);
#730 = AXIS2_PLACEMENT_3D('',#731,#732,#733);
#731 = CARTESIAN_POINT('',(20.,0.,0.));
#732 = DIRECTION('',(1.,0.,0.));
#733 = DIRECTION('',(-0.,1.,0.));
#734 = PCURVE('',#687,#735);
#735 = DEFINITIONAL_REPRESENTATION('',(#736),#740);
#736 = LINE('',#737,#738);
#737 = CARTESIAN_POINT('',(-0.,-0.8));
#738 = VECTOR('',#739,1.);
#739 = DIRECTION('',(-1.,-0.));
#740 = ( GEOMETRIC_REPRESENTATION_CONTEXT(2) 
PARAMETRIC_REPRESENTATION_CONTEXT() REPRESENTATION_CONTEXT('2D SPACE',''
  ) );
#741 = PCURVE('',#742,#747);
#742 = PLANE('',#743);
#743 = AXIS2_PLACEMENT_3D('',#744,#745,#746);
#744 = CARTESIAN_POINT('',(20.,-2.563950248511E-16,7.643776681114E-18));
#745 = DIRECTION('',(1.,0.,0.));
#746 = DIRECTION('',(-0.,0.,1.));
#747 = DEFINITIONAL_REPRESENTATION('',(#748),#752);
#748 = CIRCLE('',#749,3.2);
#749 = AXIS2_PLACEMENT_2D('',#750,#751);
#750 = CARTESIAN_POINT('',(-7.643776681114E-18,-2.563950248511E-16));
#751 = DIRECTION('',(0.,-1.));
#752 = ( GEOMETRIC_REPRESENTATION_CONTEXT(2) 
PARAMETRIC_REPRESENTATION_CONTEXT() REPRESENTATION_CONTEXT('2D SPACE',''
  ) );
#753 = ADVANCED_FACE('',(#754),#742,.T.);
#754 = FACE_BOUND('',#755,.T.);
#755 = EDGE_LOOP('',(#756));
#756 = ORIENTED_EDGE('',*,*,#727,.T.);
#757 = ( GEOMETRIC_REPRESENTATION_CONTEXT(3) 
GLOBAL_UNCERTAINTY_ASSIGNED_CONTEXT((#761)) GLOBAL_UNIT_ASSIGNED_CONTEXT
((#758,#759,#760)) REPRESENTATION_CONTEXT('Context #1',
  '3D Context with UNIT and UNCERTAINTY') );
#758 = ( LENGTH_UNIT() NAMED_UNIT(*) SI_UNIT(.MILLI.,.METRE.) );
#759 = ( NAMED_UNIT(*) PLANE_ANGLE_UNIT() SI_UNIT($,.RADIAN.) );
#760 = ( NAMED_UNIT(*) SI_UNIT($,.STERADIAN.) SOLID_ANGLE_UNIT() );
#761 = UNCERTAINTY_MEASURE_WITH_UNIT(LENGTH_MEASURE(1.E-07),#758,
  'distance_accuracy_value','confusion accuracy');
#762 = PRODUCT_RELATED_PRODUCT_CATEGORY('part',$,(#7));
ENDSEC;
END-ISO-10303-21;
